<?xml version="1.0" encoding="UTF-8" standalone="no"?>
<svg
   viewBox="0 0 12 12"
   width="12"
   height="12"
   fill="none"
   stroke="#dc3545"
   version="1.1"
   id="svg3015"
   sodipodi:docname="хрест.svg"
   inkscape:version="1.1.1 (3bf5ae0d25, 2021-09-20)"
   xmlns:inkscape="http://www.inkscape.org/namespaces/inkscape"
   xmlns:sodipodi="http://sodipodi.sourceforge.net/DTD/sodipodi-0.dtd"
   xmlns="http://www.w3.org/2000/svg"
   xmlns:svg="http://www.w3.org/2000/svg">
  <defs
     id="defs3019" />
  <sodipodi:namedview
     id="namedview3017"
     pagecolor="#ffffff"
     bordercolor="#666666"
     borderopacity="1.0"
     inkscape:pageshadow="2"
     inkscape:pageopacity="0.0"
     inkscape:pagecheckerboard="0"
     showgrid="false"
     inkscape:zoom="67.666667"
     inkscape:cx="2.9778325"
     inkscape:cy="5.9778325"
     inkscape:window-width="1920"
     inkscape:window-height="1001"
     inkscape:window-x="1691"
     inkscape:window-y="-9"
     inkscape:window-maximized="1"
     inkscape:current-layer="svg3015" />
  <circle
     cx="6"
     cy="6"
     r="4.5"
     id="circle3009"
     style="fill:none;fill-opacity:1" />
  <path
     stroke-linejoin="round"
     d="M5.8 3.6h.4L6 6.5z"
     id="path3011" />
  <circle
     cx="6"
     cy="8.2"
     r=".6"
     fill="#dc3545"
     stroke="none"
     id="circle3013" />
  <path
     style="fill:#eb8787;fill-opacity:1;stroke:#ffffff;stroke-width:0"
     d="M 5.6170906,10.97807 C 4.9846702,10.929917 4.3535781,10.754822 3.7795943,10.468262 3.2673418,10.212521 2.8878114,9.938208 2.4748017,9.5251983 2.061792,9.1121886 1.7874792,8.7326582 1.5317382,8.2204057 0.71002454,6.5745024 0.86619071,4.5988871 1.9362609,3.1029007 3.3660078,1.1040771 6.0297899,0.43807799 8.2204057,1.5317382 8.700039,1.7711941 9.0876505,2.0456652 9.4729485,2.4186747 11.137495,4.0301331 11.47301,6.579261 10.281798,8.5640394 9.8658616,9.2570665 9.2570665,9.8658616 8.5640394,10.281798 7.6828364,10.810673 6.6435461,11.056225 5.6170906,10.97807 Z M 6.5586732,9.9692477 C 7.1836203,9.8751347 7.7622019,9.6507761 8.2610837,9.3090981 8.6638493,9.0332489 9.0520875,8.6426959 9.3249228,8.2389163 9.6552622,7.7500337 9.8784724,7.1676734 9.9689356,6.5586732 10.000635,6.3452721 10.012652,5.8694922 9.9918177,5.6527094 9.9245443,4.9527164 9.7002737,4.3165806 9.3249228,3.7610837 9.0479067,3.3511169 8.6488831,2.9520933 8.2389163,2.6750772 6.8973361,1.7685671 5.1026639,1.7685671 3.7610837,2.6750772 3.3511169,2.9520933 2.9520933,3.3511169 2.6750772,3.7610837 2.2997262,4.3165806 2.0754558,4.9527164 2.0081823,5.6527094 c -0.020834,0.2167828 -0.00882,0.6925627 0.022882,0.9059638 0.090955,0.6123085 0.3005594,1.1605633 0.6367289,1.6654647 0.1606404,0.2412699 0.2846307,0.3905152 0.5159109,0.6209941 0.6521344,0.6498755 1.4784872,1.0400007 2.4246701,1.1446989 0.1747744,0.019339 0.7709434,0.00643 0.950299,-0.020583 z"
     id="path3236" />
  <path
     style="fill:#eb8787;fill-opacity:1;stroke:#ffffff;stroke-width:0"
     d="M 5.8570075,6.9697595 C 5.7005242,6.9185861 5.570022,6.7845594 5.5251526,6.6289422 5.517985,6.6040831 5.4652458,5.9087438 5.4079544,5.0837438 5.2952311,3.4605187 5.2958656,3.4905148 5.3715206,3.3614194 c 0.052734,-0.089983 0.17306,-0.1922587 0.2631557,-0.2236783 0.1132723,-0.039502 0.6173751,-0.039502 0.7306474,0 0.090096,0.03142 0.2104221,0.1336951 0.2631557,0.2236783 0.075655,0.1290954 0.07629,0.099099 -0.036434,1.7223244 -0.057291,0.825 -0.1105567,1.5221737 -0.1183674,1.549275 -0.036986,0.1283314 -0.1543387,0.2612497 -0.279751,0.316856 -0.085479,0.0379 -0.251811,0.047717 -0.3369195,0.019885 z"
     id="path3534" />
  <path
     style="fill:#eb8787;fill-opacity:1;stroke:none;stroke-width:0"
     d="M 5.8522167,8.7719561 C 5.6063909,8.7035543 5.4280628,8.4877559 5.4121236,8.2393906 5.3963315,7.9933148 5.528736,7.7735192 5.7617145,7.6590592 5.83646,7.6223375 5.8604499,7.6182266 6,7.6182266 c 0.1395501,0 0.16354,0.00411 0.2382855,0.040833 C 6.473229,7.774485 6.6054035,7.9957995 6.5867438,8.2425226 6.5591321,8.607613 6.197739,8.8680986 5.8522167,8.7719561 Z"
     id="path3573" />
  <path
     style="fill:#eb8787;fill-opacity:1;stroke:none;stroke-width:0"
     d="M 5.4605911,10.956159 C 5.2243133,10.930516 4.885906,10.863338 4.6403941,10.79334 3.2153137,10.387032 2.045471,9.3686138 1.4430413,8.0098522 1.1391395,7.3244109 1.0036782,6.6294482 1.0243028,5.8615797 1.0441919,5.1210944 1.2008489,4.4783765 1.5218726,3.820197 2.2926367,2.2399363 3.8253715,1.1888121 5.5855302,1.0334079 5.8378535,1.0111303 6.403709,1.0233362 6.6428571,1.0562152 8.6257485,1.328831 10.240754,2.7212397 10.788553,4.6305092 10.930685,5.1258863 10.971634,5.4316804 10.971942,6 c 2.52e-4,0.4660003 -0.01276,0.6110056 -0.08884,0.9901478 -0.321593,1.6025431 -1.4418839,2.9671497 -2.960228,3.6058012 -0.458382,0.192806 -0.9851093,0.322832 -1.4942986,0.368877 -0.2329529,0.02107 -0.7354736,0.01657 -0.9679803,-0.0087 z M 6.6428571,9.9609734 C 7.0397984,9.8927818 7.3882995,9.7823954 7.7364532,9.6145813 8.1842435,9.3987412 8.462087,9.1998134 8.830954,8.8309509 9.199216,8.4626935 9.4004817,8.1821459 9.6118728,7.7424155 9.8186533,7.312276 9.950918,6.8456363 9.9905527,6.4064039 10.015466,6.130321 10.000653,5.5877931 9.9621457,5.3659611 9.8047544,4.4592646 9.4359915,3.7537123 8.7912103,3.1256158 8.1767233,2.5270296 7.4997405,2.1862987 6.6296407,2.0376803 6.3715234,1.9935923 5.8158124,1.9824789 5.5418719,2.0159265 4.7950049,2.1071174 4.1497111,2.3657097 3.5689655,2.8065403 3.3765943,2.9525648 3.0295689,3.2913683 2.8712914,3.4876847 2.4336787,4.030469 2.1621011,4.6422811 2.0381767,5.364532 c -0.039522,0.2303408 -0.054657,0.7592184 -0.029604,1.0344828 0.06497,0.7138411 0.3600675,1.4569983 0.8175935,2.0589854 0.1194396,0.1571518 0.422693,0.468356 0.609794,0.6257818 0.5541346,0.4662455 1.2415076,0.7719659 2.005911,0.8921614 0.2528939,0.039766 0.9316197,0.031306 1.2009859,-0.01497 z"
     id="path3649" />
  <path
     style="fill:#eb8787;fill-opacity:1;stroke:none;stroke-width:0;stroke-miterlimit:4;stroke-dasharray:none"
     d="M 5.4605911,10.956159 C 4.5397097,10.856218 3.6163818,10.473879 2.8891626,9.8913606 2.6661842,9.7127502 2.28233,9.3269447 2.1018352,9.1000309 1.4856622,8.325393 1.1172027,7.3947927 1.0334815,6.4017421 1.0112453,6.1379897 1.0227874,5.6173731 1.0564764,5.364532 1.3678463,3.0276579 3.236547,1.2408633 5.5862069,1.0333422 c 0.2468647,-0.021803 0.829006,-0.00964 1.0552736,0.022046 0.2433863,0.034085 0.523619,0.093606 0.743702,0.1579619 1.992777,0.5827215 3.4157385,2.3289262 3.5814525,4.3950243 0.02151,0.2682439 0.01003,0.7845572 -0.02285,1.0270936 -0.116512,0.8594267 -0.431193,1.6413448 -0.93109,2.31357 C 9.1567358,10.10007 7.9188451,10.807062 6.4950779,10.95804 6.2373973,10.98536 5.7210535,10.98443 5.4605951,10.95614 Z M 6.6028572,9.9670501 C 6.809804,9.9363909 7.1612796,9.8461235 7.3743842,9.7689035 7.7464407,9.6340865 8.1786967,9.3930897 8.4827586,9.1509491 8.6630669,9.00736 9.00736,8.6630669 9.1509491,8.4827586 9.3930897,8.1786967 9.6340865,7.7464407 9.7689035,7.3743842 9.8462198,7.1610137 9.9356699,6.8128379 9.9701289,6.591133 10.008085,6.3469321 10.008095,5.6487944 9.9701437,5.4162562 9.8204897,4.4991853 9.4354828,3.7509254 8.7911762,3.1249287 8.4637725,2.806829 8.1665104,2.5967616 7.7660099,2.4004697 7.3875324,2.2149717 7.0038792,2.0949263 6.5837438,2.0305377 6.3304668,1.9917212 5.6667426,1.9909557 5.4236453,2.0291996 4.5020662,2.174182 3.7431594,2.5676533 3.100527,3.2336697 2.7988618,3.5463118 2.5959211,3.8366427 2.401305,4.2339901 2.2160656,4.6121932 2.1025477,4.9730812 2.0294213,5.4162562 c -0.038357,0.232457 -0.037942,0.9468044 6.862e-4,1.1807682 0.1119156,0.6778603 0.3721808,1.2908794 0.7809899,1.8395147 0.1167776,0.1567194 0.6242305,0.6736113 0.6473082,0.6593484 0.00798,-0.00493 0.014501,-0.00189 0.014501,0.00676 0,0.023451 0.2703248,0.2201621 0.4576728,0.3330415 0.1865697,0.1124104 0.4377628,0.2349983 0.638504,0.3116039 0.1349775,0.051509 0.4765772,0.1557682 0.4968161,0.151632 0.00575,-0.00117 0.020431,0.00196 0.032623,0.00696 0.030337,0.012454 0.2201698,0.048999 0.3546798,0.068281 0.060961,0.00874 0.127463,0.018557 0.1477832,0.021819 0.093701,0.015042 0.8530701,-0.00689 1.0018717,-0.028935 z"
     id="path3688" />
  <path
     style="fill:#eb8787;fill-opacity:1;stroke:none;stroke-width:0;stroke-miterlimit:4;stroke-dasharray:none"
     d="M 5.8448276,6.9580887 C 5.7309047,6.9152806 5.6027653,6.7955097 5.5558067,6.687943 5.5272103,6.6224378 5.5137316,6.4759333 5.438809,5.4162562 5.3523004,4.1927106 5.3326584,3.8761715 5.330141,3.6650246 5.3276612,3.457027 5.3287481,3.4487625 5.3671826,3.3833864 5.4150299,3.3019992 5.5158672,3.2065272 5.6032106,3.1599169 5.6649779,3.1269551 5.6804713,3.1256158 6,3.1256158 c 0.3204073,0 0.3348752,0.00126 0.3974193,0.034622 0.092561,0.049373 0.2016343,0.1563667 0.2411231,0.2365242 0.052432,0.1064316 0.046942,0.2651951 -0.062679,1.8125972 -0.1094813,1.5454249 -0.1002219,1.47948 -0.2267245,1.6147216 -0.098359,0.1051537 -0.1813365,0.1415213 -0.3343608,0.146544 -0.069089,0.00227 -0.1455665,-0.00337 -0.1699505,-0.012536 z"
     id="path3801" />
  <path
     style="fill:#eb8787;fill-opacity:1;stroke:none;stroke-width:0;stroke-miterlimit:4;stroke-dasharray:none"
     d="M 5.8448276,6.9572326 C 5.7332909,6.9174751 5.6030233,6.7961007 5.5558067,6.687943 5.528111,6.6245011 5.5160662,6.4971718 5.4459947,5.5270936 5.3694732,4.4677201 5.3333045,3.8869412 5.3304922,3.6724138 5.3276568,3.4561234 5.328548,3.4491029 5.3671826,3.3833864 5.4150299,3.3019992 5.5158672,3.2065272 5.6032106,3.1599169 5.6649779,3.1269551 5.6804713,3.1256158 6,3.1256158 c 0.3195287,0 0.3350221,0.00134 0.3967894,0.034301 0.087343,0.04661 0.1881807,0.1420823 0.236028,0.2234695 0.038621,0.065693 0.039527,0.072815 0.036783,0.2890274 -0.00328,0.2583309 -0.064347,1.1872197 -0.168085,2.5566502 -0.027227,0.3594244 -0.033877,0.4066251 -0.067017,0.4757157 -0.050004,0.1042477 -0.17738,0.2189729 -0.2754553,0.248098 -0.086161,0.025587 -0.2483442,0.027835 -0.3142154,0.00435 z"
     id="path3840" />
  <path
     style="fill:#eb8787;fill-opacity:1;stroke:none;stroke-width:1;stroke-miterlimit:4;stroke-dasharray:none;stroke-opacity:1"
     d="M 5.8448276,6.9557379 C 5.7189432,6.9063811 5.6052928,6.8014614 5.5567474,6.6897882 5.5268773,6.6210754 5.5107691,6.4491423 5.4388166,5.4310345 5.3516367,4.1974651 5.3335669,3.9050422 5.3306017,3.679803 5.3276479,3.4554247 5.3283962,3.4493611 5.3671826,3.3833864 5.4150299,3.3019992 5.5158672,3.2065272 5.6032106,3.1599169 5.6649779,3.1269551 5.6804713,3.1256158 6,3.1256158 c 0.3195287,0 0.3350221,0.00134 0.3967894,0.034301 0.087343,0.04661 0.1881807,0.1420823 0.236028,0.2234695 0.038432,0.065372 0.039522,0.073652 0.037055,0.2816382 -0.00309,0.2606709 -0.074372,1.3489772 -0.168422,2.5714286 -0.027045,0.3515351 -0.033898,0.3994775 -0.066937,0.4683265 -0.050028,0.104252 -0.1774112,0.2189775 -0.2754711,0.248098 -0.088487,0.026278 -0.2507224,0.027755 -0.3142147,0.00286 z"
     id="path3957" />
  <path
     style="fill:#eb8787;fill-opacity:1;stroke:none;stroke-width:0.0147783;stroke-miterlimit:4;stroke-dasharray:none;stroke-opacity:1"
     d=""
     id="path5587" />
  <path
     style="fill:#eb8787;fill-opacity:1;stroke:none;stroke-width:0.0147783;stroke-miterlimit:4;stroke-dasharray:none;stroke-opacity:1"
     d="M 5.5862069,10.97108 C 4.6109239,10.884666 3.6450235,10.498294 2.8891626,9.8922294 2.6803503,9.7247996 2.2752005,9.3196497 2.1077706,9.1108374 1.5410777,8.4040794 1.1872497,7.5682509 1.0536262,6.6206897 1.0159755,6.3536982 1.0163804,5.6417004 1.0543363,5.3719212 1.1424477,4.7456526 1.3067091,4.2247507 1.5826247,3.6966257 1.8340621,3.2153539 2.1227279,2.8283184 2.5218409,2.437349 3.2943736,1.6805794 4.2650673,1.2076728 5.3571429,1.0560349 5.5919777,1.0234279 6.1564847,1.0113329 6.4196478,1.0332709 8.1055621,1.1738143 9.6127267,2.175034 10.412155,3.6855205 c 0.269876,0.5099189 0.451023,1.08485 0.533673,1.6937895 0.03345,0.2464449 0.03798,0.9727242 0.0075,1.1970444 C 10.809758,7.6317306 10.432972,8.4821391 9.7648837,9.2586207 9.064093,10.073111 8.1279833,10.63023 7.0607308,10.867979 c -0.3565362,0.07942 -0.5517798,0.09997 -0.9942283,0.104634 -0.2275862,0.0024 -0.4437192,0.0017 -0.4802956,-0.0015 z M 6.4581281,9.9818403 C 6.807591,9.9572564 7.314423,9.8124678 7.7255339,9.6197756 8.5626337,9.227418 9.2918662,8.4792562 9.6620372,7.6330049 9.7373509,7.4608296 9.8243741,7.2280088 9.8307335,7.1816769 9.8334782,7.1616807 9.8398948,7.13867 9.8449927,7.1305419 9.8626358,7.1024118 9.9439289,6.7456614 9.9679083,6.591133 9.9973812,6.401204 10.008904,5.8416887 9.9883002,5.6009852 9.9257991,4.8708256 9.6194198,4.1109284 9.1481654,3.5172414 9.0026099,3.3338703 8.6745604,3.0033665 8.4975369,2.8617451 7.9433249,2.4183672 7.2612433,2.1268442 6.5394089,2.0248374 6.3709043,2.0010249 5.8175716,1.992808 5.6083744,2.0110116 4.8651219,2.0756868 4.1006802,2.3843836 3.5024631,2.8614205 3.1911881,3.1096408 2.8039924,3.5431275 2.5947349,3.8776717 2.2792806,4.3819949 2.0616426,5.024987 2.0114328,5.6009852 1.9935522,5.8061093 2.0013635,6.3928766 2.0240234,6.5467584 2.1250081,7.2325401 2.3900642,7.8694796 2.8045736,8.4224499 2.9236045,8.5812412 3.4082263,9.08867 3.4408497,9.08867 c 0.00746,0 0.039338,0.023784 0.07084,0.052853 0.1876209,0.1731318 0.728764,0.4815355 1.0622023,0.6053614 0.1799753,0.066836 0.4824707,0.1573444 0.4924661,0.1473491 0.004,-0.004 0.01454,-0.00154 0.023416,0.00547 0.019114,0.015097 0.3093152,0.070457 0.4668769,0.089063 0.1130817,0.013355 0.6745199,0.00904 0.9014779,-0.00693 z"
     id="path5626" />
  <path
     style="fill:#eb8787;fill-opacity:1;stroke:none;stroke-width:0.0147783;stroke-miterlimit:4;stroke-dasharray:none;stroke-opacity:1"
     d="M 5.5788177,10.971129 C 4.4508584,10.856204 3.4562728,10.420115 2.6589878,9.690892 2.1837479,9.2562217 1.8365921,8.8029554 1.5582416,8.2536946 1.2614549,7.6680541 1.0907351,7.069784 1.0332153,6.4137931 1.011383,6.1648036 1.0238861,5.5838308 1.0560363,5.3533825 1.1853384,4.4265655 1.5358832,3.6094469 2.1211124,2.8706945 2.2495761,2.7085309 2.5809531,2.3677034 2.7561576,2.2175384 3.5228245,1.5604407 4.4857872,1.1470708 5.4975369,1.0407499 5.8141834,1.0074748 6.4073972,1.0186753 6.7019704,1.0634909 7.899402,1.2456652 8.9309712,1.8034685 9.7350324,2.703567 10.385604,3.4318431 10.80966,4.3688424 10.945989,5.3793103 c 0.03728,0.2763002 0.03756,0.9890777 4.94e-4,1.251852 -0.141513,1.0032686 -0.535979,1.883584 -1.1748175,2.6218004 -0.6771717,0.7825123 -1.5556573,1.3254503 -2.5545337,1.5787993 -0.4235487,0.107426 -0.653094,0.13534 -1.1580185,0.140819 -0.2316502,0.0025 -0.4477833,0.0019 -0.4802956,-0.0015 z M 6.4137931,9.9822618 C 6.8351339,9.958053 7.4437383,9.774387 7.8877578,9.5374457 8.5480061,9.1851183 9.1447441,8.5973653 9.5065553,7.9430215 9.6480337,7.6871546 9.7836729,7.3614575 9.8356869,7.1527094 c 0.00101,-0.00406 0.00613,-0.017365 0.011372,-0.029557 C 9.8689948,7.0721297 9.946984,6.7230415 9.9688714,6.5779049 9.9941558,6.4102439 10.004195,5.7815446 9.9849436,5.5714286 9.9303412,4.9754882 9.6945811,4.3186373 9.3444644,3.7869906 9.0810106,3.38694 8.6193291,2.9245003 8.2167488,2.6574229 7.7631262,2.3564833 7.2228118,2.1426077 6.6768372,2.0478711 6.3070507,1.9837064 5.66566,1.9862286 5.2973424,2.0532957 4.3766951,2.2209369 3.6228962,2.6498873 2.9714518,3.3768473 2.5038814,3.8986188 2.174831,4.5938477 2.0481713,5.3275862 1.9770185,5.7397741 1.9863067,6.3841148 2.0692488,6.7897605 2.2128636,7.4921391 2.5591465,8.1798603 3.0127923,8.6636472 3.2226887,8.8874895 3.4317148,9.08867 3.45439,9.08867 c 0.010184,0 0.018516,0.00598 0.018516,0.013292 0,0.01858 0.2302512,0.1879358 0.4034044,0.2967139 0.2158529,0.1356028 0.5821232,0.3097914 0.8158074,0.3879764 0.19995,0.066899 0.3158252,0.101237 0.362069,0.1072955 0.012192,0.0016 0.048768,0.01025 0.081281,0.019228 0.091617,0.0253 0.3273446,0.064462 0.4581281,0.076111 0.1268961,0.011303 0.566791,0.00753 0.820197,-0.00703 z"
     id="path5665" />
  <path
     style="fill:#eb8787;fill-opacity:1;stroke:none;stroke-width:0.0147783;stroke-miterlimit:4;stroke-dasharray:none;stroke-opacity:1"
     d="M 5.5640394,10.970017 C 4.6632064,10.889091 3.7473625,10.537319 3.0211661,9.9933081 1.874656,9.13443 1.157362,7.8429596 1.0330723,6.4137931 1.0113217,6.1636909 1.0240221,5.583351 1.0563581,5.3497537 1.1825722,4.4379743 1.5449412,3.590593 2.1117499,2.8817734 2.2508824,2.707782 2.5789278,2.3695199 2.7561576,2.217296 3.5352742,1.5481076 4.5216832,1.1305207 5.5492611,1.0348622 c 0.2101999,-0.019568 0.6917469,-0.01935 0.908867,4.113e-4 1.0371091,0.094392 2.0664665,0.5402168 2.8374384,1.2289214 0.9167555,0.8189326 1.4767855,1.8713663 1.6506365,3.1019503 0.02031,0.1437653 0.02579,0.2831527 0.02548,0.6486331 -4.31e-4,0.5128237 -0.01716,0.6762331 -0.111929,1.0935961 -0.268603,1.1828784 -0.9746274,2.238065 -1.9774311,2.9553646 -0.7068839,0.50563 -1.5628201,0.821859 -2.4389711,0.901087 -0.1564449,0.01415 -0.7411863,0.0176 -0.8793104,0.0052 z M 6.6619927,9.9552275 C 6.9182571,9.9070518 7.2689761,9.811007 7.4217961,9.7471547 7.4485521,9.7359754 7.4737685,9.7265926 7.4778325,9.726304 7.4945458,9.7251173 7.6728764,9.6426166 7.8246968,9.565835 8.1962192,9.3779415 8.4539854,9.1902198 8.7836871,8.8674372 9.1933015,8.4664193 9.4219521,8.1461195 9.6487277,7.655665 9.7089257,7.5254728 9.8167138,7.2407499 9.8348279,7.1640795 9.8391859,7.1456338 9.8624233,7.055653 9.8864667,6.9641223 9.9733819,6.6332444 9.9911863,6.4668171 9.9910012,5.986976 9.9908268,5.535716 9.9795752,5.4232494 9.9013513,5.090898 9.7433901,4.4197658 9.420528,3.7972463 8.9964072,3.3460493 8.745266,3.0788749 8.5521471,2.9020197 8.3497537,2.7538541 7.8666491,2.400189 7.3389285,2.1757551 6.7093596,2.056212 6.5065048,2.0176938 6.3056356,2.0037764 5.9704433,2.0050158 5.7176845,2.0059504 5.6462208,2.0097543 5.445209,2.0329733 5.3490597,2.0440796 5.0903004,2.0940355 5.0246305,2.1141699 4.9961823,2.1228921 4.9539774,2.1334153 4.930842,2.1375546 4.8482613,2.1523298 4.4995697,2.278716 4.3304682,2.3551652 3.5880284,2.6908153 2.8982141,3.3276607 2.4997125,4.0453432 2.2408119,4.5116104 2.052492,5.1110633 2.0156454,5.5862069 c -0.013019,0.1678801 -0.013014,0.695399 7.8e-6,0.820197 0.020295,0.1945048 0.023667,0.2210337 0.039201,0.3083751 0.013884,0.078067 0.079399,0.3573858 0.094052,0.4009845 0.00273,0.00813 0.00601,0.019697 0.00729,0.025708 0.00654,0.030716 0.1109121,0.320582 0.1366066,0.3793743 0.070234,0.1607054 0.2683728,0.5481202 0.2803291,0.5481202 0.00719,0 0.013073,0.00873 0.013073,0.019397 0,0.02155 0.1326968,0.2202011 0.2446569,0.3662598 0.06956,0.090745 0.5574714,0.5883439 0.6494318,0.6623262 0.1533084,0.123337 0.337959,0.2497602 0.4876847,0.333899 0.1152386,0.064759 0.3919204,0.2044048 0.4655172,0.2349545 0.036576,0.015183 0.093104,0.039065 0.1256158,0.053072 0.080092,0.034505 0.4159822,0.1393801 0.4950739,0.154577 0.02032,0.0039 0.066872,0.014614 0.1034483,0.023799 0.2546813,0.063955 0.3630694,0.072154 0.8793103,0.066513 0.3732859,-0.00408 0.5339778,-0.011415 0.6250469,-0.028535 z"
     id="path5704" />
  <path
     style="fill:#eb8787;fill-opacity:1;stroke:none;stroke-width:0.0147783;stroke-miterlimit:4;stroke-dasharray:none;stroke-opacity:1"
     d="M 5.4384236,10.956752 C 4.506136,10.84499 3.6043086,10.468378 2.885369,9.8905728 2.7068493,9.7470981 2.3992553,9.450117 2.2411873,9.2686176 1.545183,8.4694395 1.1309322,7.493658 1.0329764,6.4226365 1.0112028,6.1845695 1.0243222,5.5697532 1.0560281,5.3423645 1.1823706,4.4362605 1.5411311,3.5990959 2.1104955,2.8817734 2.2545084,2.7003365 2.7014648,2.253486 2.8817734,2.1106783 3.5882799,1.5511119 4.3955628,1.2012007 5.2980296,1.0633687 5.563295,1.0228552 6.1569841,1.0075775 6.445951,1.0338287 c 0.9707241,0.088185 1.9104312,0.4673036 2.6719549,1.077982 0.1761897,0.1412894 0.5153306,0.4699232 0.6649478,0.6443469 0.6829723,0.7962079 1.0993313,1.794784 1.1838643,2.8393199 0.02407,0.2974884 0.0096,0.8516769 -0.02886,1.1064929 C 10.76983,7.8146721 10.269951,8.7918016 9.4710539,9.5691777 8.6401822,10.377668 7.5916773,10.860986 6.4433498,10.964826 c -0.2337976,0.02114 -0.799104,0.0166 -1.0049262,-0.0081 z m 1.014347,-0.9812275 c 0.098655,-0.00767 0.2416348,-0.027881 0.317734,-0.044905 0.076099,-0.017024 0.1531518,-0.033968 0.1712276,-0.037655 0.018076,-0.00369 0.049665,-0.01309 0.070197,-0.020897 0.020532,-0.00781 0.037332,-0.011197 0.037332,-0.00754 0,0.00366 0.018288,-5.098e-4 0.04064,-0.00927 0.022352,-0.00876 0.087192,-0.029028 0.1440886,-0.045037 0.056897,-0.01601 0.1267242,-0.039281 0.1551725,-0.051715 0.028448,-0.012433 0.065025,-0.027892 0.081281,-0.034352 C 7.6157221,9.66642 7.6889795,9.6327427 7.8608926,9.5446615 8.0695976,9.4377299 8.2870351,9.2997965 8.4326907,9.1819366 8.7807174,8.9003242 9.1300535,8.5259685 9.3444708,8.2048543 9.5366033,7.9171139 9.7604029,7.4313132 9.842791,7.1231527 9.852571,7.0865767 9.866276,7.0400247 9.873248,7.0197044 9.880218,6.9993844 9.888995,6.9644134 9.892746,6.9419914 9.896496,6.9195694 9.90306,6.8896434 9.907331,6.8754894 9.911601,6.8613354 9.918311,6.8331284 9.922242,6.8128084 9.926172,6.7924884 9.94091,6.7226604 9.954992,6.657636 9.976445,6.558577 9.980761,6.4543536 9.981612,6.0147788 9.9825563,5.5270923 9.980245,5.4776595 9.9487946,5.3128079 9.9301865,5.2152709 9.9049973,5.0988916 9.8928186,5.0541872 9.88064,5.0094828 9.8673142,4.9569145 9.8632057,4.937369 9.8590971,4.9178233 9.849168,4.8895598 9.841141,4.8745611 9.833111,4.8595621 9.829684,4.8472901 9.833521,4.8472901 c 0.00806,0 -0.066165,-0.2236828 -0.098718,-0.2974757 C 9.7227139,4.5224167 9.704272,4.4767241 9.6938184,4.4482759 9.6190147,4.2447058 9.3892284,3.8398825 9.2245306,3.6215137 9.1022354,3.4593655 9.105865,3.463419 8.8393772,3.191367 8.5221021,2.8674674 8.2811895,2.6810839 7.9285714,2.4867161 7.6227655,2.3181519 7.1613751,2.1437152 6.8866995,2.0928183 6.8663793,2.089053 6.8018868,2.07566 6.7433829,2.0630562 6.684879,2.0504524 6.5851253,2.0362196 6.521708,2.0314277 6.458291,2.0266377 6.3970237,2.0196197 6.385559,2.0158377 c -0.029018,-0.00957 -0.711371,-0.00963 -0.772024,-6.8e-5 -0.027223,0.00429 -0.082747,0.011268 -0.1233872,0.015499 -0.1250483,0.013017 -0.2058862,0.024363 -0.2290534,0.03215 -0.012186,0.0041 -0.048763,0.011094 -0.081281,0.015551 -0.032518,0.00446 -0.070762,0.014239 -0.084986,0.021738 -0.014224,0.0075 -0.025862,0.010538 -0.025862,0.00676 0,-0.00378 -0.021613,-3.057e-4 -0.04803,0.00773 -0.026416,0.00803 -0.063745,0.01781 -0.082953,0.021728 C 4.7862513,2.1678693 4.4445757,2.2989177 4.2076478,2.4170341 3.9336766,2.5536179 3.6171466,2.7614268 3.4433498,2.9188126 3.1240862,3.2079291 2.9579524,3.3821475 2.7875744,3.6065 2.5327708,3.9420232 2.2675519,4.461059 2.1808847,4.7937965 c -0.011948,0.045873 -0.025045,0.088779 -0.029105,0.095347 -0.00406,0.00657 -0.010772,0.028102 -0.014918,0.047852 -0.00415,0.019751 -0.017345,0.072487 -0.029331,0.1171911 -0.011986,0.044704 -0.025073,0.1012315 -0.02908,0.1256158 -0.00401,0.024384 -0.014387,0.079922 -0.023066,0.1234179 -0.032075,0.1607633 -0.038143,0.2704352 -0.038143,0.6893905 0,0.5390412 0.019423,0.719027 0.1119648,1.0375288 0.016045,0.055221 0.032481,0.1154769 0.036524,0.1339013 0.00404,0.018425 0.024205,0.078277 0.044804,0.133005 0.020599,0.054728 0.048147,0.1294319 0.061218,0.1660083 0.02201,0.061591 0.2623971,0.5468925 0.3036179,0.6129538 0.104701,0.1677962 0.1918103,0.2950328 0.2666481,0.3894808 0.08082,0.1019985 0.5364111,0.5682563 0.6089636,0.6232219 0.016123,0.012215 0.062565,0.049765 0.1032058,0.083445 0.060822,0.050405 0.2138119,0.1548529 0.3698495,0.2524991 0.043589,0.027278 0.5078485,0.2593331 0.5759633,0.2878897 0.1245427,0.052214 0.4456673,0.1561086 0.5541872,0.1792988 0.02032,0.00434 0.083498,0.018643 0.1403941,0.031779 0.2237914,0.051669 0.3565942,0.063668 0.7167487,0.064758 0.199138,6.03e-4 0.4427863,-0.00518 0.5414399,-0.012856 z"
     id="path5743" />
  <path
     style="fill:#eb8787;fill-opacity:1;stroke:none;stroke-width:0.0147783;stroke-miterlimit:4;stroke-dasharray:none;stroke-opacity:1"
     d="M 5.8448276,6.9557379 C 5.7590363,6.9221008 5.7096745,6.8883015 5.6469313,6.8202333 5.5403574,6.7046141 5.5318693,6.6716314 5.498417,6.2431425 5.4094039,5.1029784 5.3337133,3.9453471 5.3303323,3.6724138 5.3276437,3.4553781 5.3284288,3.4493056 5.3678469,3.3822527 5.414596,3.3027294 5.5309624,3.1934439 5.6114876,3.1534376 5.6613247,3.1286777 5.7040818,3.1256158 6,3.1256158 c 0.2959182,0 0.3386753,0.00306 0.3885124,0.027822 0.080525,0.040006 0.1968916,0.1492918 0.2436407,0.2288151 0.039418,0.067053 0.040203,0.073125 0.037515,0.2901611 -0.00281,0.2272185 -0.031031,0.6876248 -0.1082312,1.7660098 -0.080464,1.1239743 -0.086116,1.1802623 -0.1271616,1.2663561 -0.049672,0.1041871 -0.17694,0.2189085 -0.2752319,0.248098 -0.088487,0.026278 -0.2507224,0.027755 -0.3142158,0.00286 z"
     id="path5782" />
</svg>
